<?xml version="1.0" encoding="UTF-8" ?>
<!DOCTYPE svg PUBLIC "-//W3C//DTD SVG 1.1//EN" "http://www.w3.org/Graphics/SVG/1.1/DTD/svg11.dtd">
<svg width="664pt" height="649pt" viewBox="0 0 664 649" version="1.1" xmlns="http://www.w3.org/2000/svg">
<g id="#171212ff">
<path fill="#171212" opacity="1.00" d=" M 306.06 21.76 C 333.00 17.78 360.66 20.21 386.95 27.03 C 412.22 33.53 436.35 43.81 459.64 55.48 C 465.23 58.23 470.67 61.60 476.90 62.67 C 483.22 64.14 489.68 61.52 496.00 63.01 C 503.29 64.65 509.31 69.36 515.07 73.87 C 531.09 86.35 546.89 99.35 560.32 114.67 C 569.74 125.46 577.52 137.66 583.38 150.74 C 590.57 166.80 595.36 183.81 599.60 200.86 C 604.40 220.16 608.44 239.64 612.61 259.08 C 628.57 251.55 640.25 236.73 657.38 231.42 C 656.82 235.52 656.00 239.60 654.56 243.50 C 649.12 260.65 641.56 277.01 634.54 293.55 C 630.38 302.75 626.80 312.20 622.52 321.35 C 617.15 333.29 610.81 344.78 605.96 356.95 C 603.22 363.40 601.94 370.35 601.75 377.34 C 565.12 365.48 528.69 353.00 492.13 340.90 C 453.47 327.91 414.92 314.58 376.03 302.31 C 363.46 316.08 350.48 329.47 337.72 343.08 C 320.10 333.81 302.83 323.87 285.18 314.69 C 266.09 326.04 247.28 337.88 227.94 348.82 C 217.37 354.80 207.19 361.43 196.81 367.73 C 160.39 389.67 123.89 411.47 87.47 433.42 L 86.38 434.09 C 86.58 430.65 86.70 427.15 85.74 423.81 L 85.78 423.40 C 87.60 413.48 80.27 405.46 75.15 397.85 C 56.80 370.47 37.68 343.59 20.60 315.40 C 18.31 311.88 17.00 307.47 13.37 305.04 L 14.92 305.66 C 12.92 301.57 10.80 297.51 9.56 293.11 C 15.99 293.98 22.32 295.73 28.06 298.82 C 37.80 303.91 46.84 310.68 57.71 313.28 C 58.35 276.97 60.88 240.35 70.17 205.10 C 74.10 189.47 80.42 174.58 87.08 159.95 C 89.81 154.19 92.25 148.21 96.14 143.09 C 102.72 133.97 108.89 124.54 115.66 115.56 C 122.39 108.02 129.00 99.90 137.97 94.93 C 143.07 91.93 148.96 94.99 154.37 93.64 C 160.25 92.24 165.18 88.53 169.91 84.94 C 182.20 75.41 194.66 66.00 208.15 58.20 C 238.43 40.76 271.24 26.62 306.06 21.76 M 267.05 41.38 C 233.24 51.04 200.59 66.58 174.04 89.92 C 171.76 91.88 169.57 93.96 167.71 96.33 C 170.47 96.38 173.23 96.46 175.98 96.75 C 200.39 99.33 224.67 103.01 248.97 106.44 C 271.72 110.42 293.67 117.86 315.81 124.27 C 320.21 125.61 325.35 126.45 329.21 123.28 C 343.63 112.74 359.84 105.04 376.37 98.43 C 404.66 86.62 434.99 80.63 463.23 68.67 C 464.60 70.96 468.94 66.84 465.68 67.02 C 458.70 61.22 450.37 57.38 442.08 53.87 C 426.58 47.54 410.47 42.83 394.32 38.49 C 370.68 32.83 346.19 30.95 321.93 31.87 C 303.36 33.02 284.96 36.39 267.05 41.38 M 484.51 71.65 C 470.05 75.57 455.86 80.47 441.47 84.66 C 405.17 96.00 368.26 107.51 335.94 128.10 C 334.50 129.03 332.96 129.91 331.91 131.31 C 344.02 137.44 357.02 141.62 369.01 148.00 C 403.02 165.26 437.02 182.52 471.04 199.75 C 477.84 203.28 484.31 207.84 491.89 209.56 C 500.55 211.26 508.23 206.01 516.02 203.22 C 534.43 196.49 553.57 192.00 572.05 185.47 C 575.75 183.97 580.26 182.75 582.22 178.91 C 582.90 174.17 579.68 170.16 577.81 166.08 C 568.76 147.68 557.91 130.08 544.64 114.40 C 533.55 101.54 521.23 89.71 507.84 79.27 C 504.08 76.50 500.57 73.20 496.11 71.59 C 492.38 70.18 488.31 70.98 484.51 71.65 M 136.45 106.26 C 124.44 114.70 116.26 127.17 108.30 139.23 C 95.35 160.50 84.76 183.24 77.15 206.96 C 74.64 214.85 72.49 222.93 71.89 231.22 C 78.08 233.22 84.46 234.50 90.88 235.53 C 110.85 238.77 131.07 240.05 151.07 243.09 C 155.46 243.67 160.17 244.24 164.37 242.43 C 168.74 240.30 172.22 236.82 176.04 233.90 C 220.73 199.86 265.75 166.24 310.34 132.06 C 286.11 126.39 262.53 118.12 238.11 113.25 C 209.11 109.51 180.29 104.05 151.09 101.99 C 145.85 101.41 140.69 103.28 136.45 106.26 M 302.01 150.04 C 279.53 164.94 258.09 181.34 236.68 197.73 C 219.46 211.11 202.26 224.52 185.47 238.43 C 166.41 253.61 146.37 267.83 129.71 285.74 C 121.15 294.58 111.45 302.20 101.80 309.79 C 91.75 318.77 81.74 327.80 71.77 336.87 C 70.22 337.77 70.42 339.51 71.04 340.94 C 78.44 363.33 85.56 385.82 92.94 408.22 C 100.65 405.68 107.74 401.66 115.00 398.10 C 138.23 386.19 160.97 373.37 183.98 361.05 C 188.95 358.41 193.66 355.29 198.68 352.75 C 241.56 330.60 284.39 308.36 327.25 286.19 C 329.82 284.92 332.23 283.20 335.05 282.53 C 337.81 282.47 340.51 283.22 343.19 283.79 C 360.06 287.70 376.63 292.79 393.22 297.73 C 437.57 311.24 481.69 325.47 525.94 339.30 C 546.55 345.60 567.09 352.25 588.00 357.54 C 590.49 358.01 593.01 359.05 595.59 358.75 C 598.31 341.50 601.24 324.26 603.26 306.90 C 603.71 300.44 604.83 293.87 603.98 287.43 C 594.36 280.94 583.34 276.86 573.83 270.19 C 567.53 265.66 560.67 262.02 554.05 258.00 C 535.47 246.88 516.79 235.90 498.23 224.73 C 487.97 218.83 477.46 213.37 466.99 207.85 C 424.61 186.08 382.11 164.44 338.35 145.57 C 332.73 143.15 326.99 140.98 321.03 139.61 C 314.26 142.24 308.04 146.04 302.01 150.04 M 502.86 216.95 C 536.48 236.74 570.30 256.20 603.98 275.89 C 600.23 247.10 594.41 218.59 587.36 190.44 C 558.32 196.14 530.39 206.30 502.86 216.95 M 68.21 241.81 C 68.57 261.27 65.25 280.61 65.78 300.07 C 66.11 308.66 67.13 317.20 67.99 325.75 C 82.63 314.85 96.15 302.54 110.18 290.88 C 113.39 290.51 115.36 287.76 117.16 285.39 L 115.88 285.96 C 123.97 278.37 132.44 271.17 140.37 263.40 C 144.15 259.66 148.06 255.98 151.08 251.56 C 123.45 248.32 95.83 245.12 68.21 241.81 Z" />
<path fill="#171212" opacity="1.00" d=" M 101.82 471.80 C 113.47 460.54 132.04 458.94 146.47 465.36 C 138.61 467.03 129.72 467.24 123.66 473.28 C 117.66 478.86 113.69 486.98 114.31 495.30 C 112.96 504.08 118.19 513.64 126.87 516.26 C 136.67 519.20 147.02 516.57 156.49 513.63 C 178.21 506.41 198.39 495.45 219.24 486.15 C 236.88 478.29 255.31 470.45 274.97 470.44 C 287.29 470.02 299.70 473.30 310.14 479.89 C 318.15 484.78 325.00 491.29 332.81 496.47 C 342.27 492.83 351.19 487.77 361.01 485.06 C 376.35 480.57 392.90 481.94 407.94 486.93 C 425.81 492.41 441.43 503.33 455.09 515.85 C 466.43 525.80 476.72 536.88 488.04 546.84 C 497.99 555.29 509.60 563.02 522.97 564.11 C 531.34 564.77 541.02 562.24 545.65 554.66 C 547.26 552.48 547.33 549.72 547.78 547.17 C 549.86 541.27 548.67 534.91 546.83 529.12 C 545.66 525.62 543.99 522.21 541.46 519.49 C 536.26 512.90 526.89 513.99 520.44 509.47 C 528.04 507.36 536.34 505.46 544.05 508.14 C 550.70 510.41 555.71 515.68 560.15 520.91 C 568.45 530.20 573.35 542.52 573.55 554.99 C 573.73 560.51 572.22 565.87 571.54 571.32 C 567.87 576.61 565.89 582.89 561.92 588.00 C 553.48 599.98 540.62 608.19 526.90 612.91 C 510.28 618.59 492.48 619.92 475.02 619.12 C 436.94 617.17 399.67 605.35 366.63 586.49 C 357.57 581.19 348.87 575.11 341.47 567.62 C 336.23 562.41 332.19 556.04 326.23 551.57 C 315.93 556.85 307.19 564.73 296.60 569.50 C 284.59 574.85 271.82 578.29 258.99 581.06 C 236.35 585.82 213.06 587.51 189.96 586.04 C 171.11 584.77 152.24 580.91 135.03 572.94 C 119.84 566.02 105.38 555.88 96.83 541.21 C 90.84 531.42 88.36 519.98 87.50 508.65 C 87.65 495.24 91.64 481.10 101.82 471.80 Z" />
</g>
<g id="#458d8fff">
<path fill="#458d8f" opacity="1.00" d=" M 267.05 41.38 C 284.96 36.39 303.36 33.02 321.93 31.87 C 346.19 30.95 370.68 32.83 394.32 38.49 C 410.47 42.83 426.58 47.54 442.08 53.87 C 450.37 57.38 458.70 61.22 465.68 67.02 C 464.85 67.56 464.03 68.11 463.23 68.67 C 434.99 80.63 404.66 86.62 376.37 98.43 C 359.84 105.04 343.63 112.74 329.21 123.28 C 325.35 126.45 320.21 125.61 315.81 124.27 C 293.67 117.86 271.72 110.42 248.97 106.44 C 224.67 103.01 200.39 99.33 175.98 96.75 C 173.23 96.46 170.47 96.38 167.71 96.33 C 169.57 93.96 171.76 91.88 174.04 89.92 C 200.59 66.58 233.24 51.04 267.05 41.38 Z" />
<path fill="#458d8f" opacity="1.00" d=" M 484.51 71.65 C 488.31 70.98 492.38 70.18 496.11 71.59 C 500.57 73.20 504.08 76.50 507.84 79.27 C 521.23 89.71 533.55 101.54 544.64 114.40 C 557.91 130.08 568.76 147.68 577.81 166.08 C 579.68 170.16 582.90 174.17 582.22 178.91 C 580.26 182.75 575.75 183.97 572.05 185.47 C 553.57 192.00 534.43 196.49 516.02 203.22 C 508.23 206.01 500.55 211.26 491.89 209.56 C 484.31 207.84 477.84 203.28 471.04 199.75 C 437.02 182.52 403.02 165.26 369.01 148.00 C 357.02 141.62 344.02 137.44 331.91 131.31 C 332.96 129.91 334.50 129.03 335.94 128.10 C 368.26 107.51 405.17 96.00 441.47 84.66 C 455.86 80.47 470.05 75.57 484.51 71.65 Z" />
<path fill="#458d8f" opacity="1.00" d=" M 136.45 106.26 C 140.69 103.28 145.85 101.41 151.09 101.99 C 180.29 104.05 209.11 109.51 238.11 113.25 C 262.53 118.12 286.11 126.39 310.34 132.06 C 265.75 166.24 220.73 199.86 176.04 233.90 C 172.22 236.82 168.74 240.30 164.37 242.43 C 160.17 244.24 155.46 243.67 151.07 243.09 C 131.07 240.05 110.85 238.77 90.88 235.53 C 84.46 234.50 78.08 233.22 71.89 231.22 C 72.49 222.93 74.64 214.85 77.15 206.96 C 84.76 183.24 95.35 160.50 108.30 139.23 C 116.26 127.17 124.44 114.70 136.45 106.26 Z" />
<path fill="#458d8f" opacity="1.00" d=" M 302.01 150.04 C 308.04 146.04 314.26 142.24 321.03 139.61 C 326.99 140.98 332.73 143.15 338.35 145.57 C 382.11 164.44 424.61 186.08 466.99 207.85 C 477.46 213.37 487.97 218.83 498.23 224.73 C 516.79 235.90 535.47 246.88 554.05 258.00 C 560.67 262.02 567.53 265.66 573.83 270.19 C 583.34 276.86 594.36 280.94 603.98 287.43 C 604.83 293.87 603.71 300.44 603.26 306.90 C 601.24 324.26 598.31 341.50 595.59 358.75 C 593.01 359.05 590.49 358.01 588.00 357.54 C 567.09 352.25 546.55 345.60 525.94 339.30 C 481.69 325.47 437.57 311.24 393.22 297.73 C 376.63 292.79 360.06 287.70 343.19 283.79 C 340.51 283.22 337.81 282.47 335.05 282.53 C 332.23 283.20 329.82 284.92 327.25 286.19 C 284.39 308.36 241.56 330.60 198.68 352.75 C 193.66 355.29 188.95 358.41 183.98 361.05 C 160.97 373.37 138.23 386.19 115.00 398.10 C 107.74 401.66 100.65 405.68 92.94 408.22 C 85.56 385.82 78.44 363.33 71.04 340.94 C 70.42 339.51 70.22 337.77 71.77 336.87 C 81.74 327.80 91.75 318.77 101.80 309.79 C 111.45 302.20 121.15 294.58 129.71 285.74 C 146.37 267.83 166.41 253.61 185.47 238.43 C 202.26 224.52 219.46 211.11 236.68 197.73 C 258.09 181.34 279.53 164.94 302.01 150.04 Z" />
<path fill="#458d8f" opacity="1.00" d=" M 502.86 216.95 C 530.39 206.30 558.32 196.14 587.36 190.44 C 594.41 218.59 600.23 247.10 603.98 275.89 C 570.30 256.20 536.48 236.74 502.86 216.95 Z" />
<path fill="#458d8f" opacity="1.00" d=" M 68.21 241.81 C 95.83 245.12 123.45 248.32 151.08 251.56 C 148.06 255.98 144.15 259.66 140.37 263.40 C 132.44 271.17 123.97 278.37 115.88 285.96 C 113.93 287.55 112.06 289.22 110.18 290.88 C 96.15 302.54 82.63 314.85 67.99 325.75 C 67.13 317.20 66.11 308.66 65.78 300.07 C 65.25 280.61 68.57 261.27 68.21 241.81 Z" />
</g>
<g id="#000000cc">
<path fill="#000000" opacity="0.80" d=" M 465.68 67.02 C 468.94 66.84 464.60 70.96 463.23 68.67 C 464.03 68.11 464.85 67.56 465.68 67.02 Z" />
<path fill="#000000" opacity="0.80" d=" M 634.54 293.55 C 641.56 277.01 649.12 260.65 654.56 243.50 C 655.87 243.50 657.17 243.48 658.49 243.49 C 656.58 253.98 652.62 263.93 648.72 273.81 C 641.90 290.87 634.19 307.55 627.19 324.53 C 621.42 338.21 614.30 351.28 608.38 364.89 C 605.07 372.43 602.83 380.51 602.66 388.79 C 560.42 374.69 518.19 360.57 475.95 346.49 C 443.20 335.43 410.30 324.79 377.63 313.49 C 364.99 326.25 352.94 339.58 340.54 352.58 C 339.67 353.29 338.64 355.05 337.39 353.76 C 321.23 344.83 304.92 336.14 288.75 327.22 C 287.56 326.59 286.09 325.80 284.88 326.82 C 219.08 366.27 153.38 405.89 87.50 445.20 C 87.61 441.27 87.70 437.34 87.47 433.42 C 123.89 411.47 160.39 389.67 196.81 367.73 C 207.19 361.43 217.37 354.80 227.94 348.82 C 247.28 337.88 266.09 326.04 285.18 314.69 C 302.83 323.87 320.10 333.81 337.72 343.08 C 350.48 329.47 363.46 316.08 376.03 302.31 C 414.92 314.58 453.47 327.91 492.13 340.90 C 528.69 353.00 565.12 365.48 601.75 377.34 C 601.94 370.35 603.22 363.40 605.96 356.95 C 610.81 344.78 617.15 333.29 622.52 321.35 C 626.80 312.20 630.38 302.75 634.54 293.55 Z" />
<path fill="#000000" opacity="0.80" d=" M 110.18 290.88 C 112.06 289.22 113.93 287.55 115.88 285.96 L 117.16 285.39 C 115.36 287.76 113.39 290.51 110.18 290.88 Z" />
<path fill="#000000" opacity="0.80" d=" M 10.83 304.27 C 11.47 304.46 12.74 304.85 13.37 305.04 C 17.00 307.47 18.31 311.88 20.60 315.40 C 37.68 343.59 56.80 370.47 75.15 397.85 C 80.27 405.46 87.60 413.48 85.78 423.40 C 70.60 400.57 54.89 378.08 39.75 355.22 C 31.77 343.04 23.75 330.87 16.70 318.12 C 14.35 313.69 11.76 309.27 10.83 304.27 Z" />
<path fill="#000000" opacity="0.80" d=" M 114.31 495.30 C 113.69 486.98 117.66 478.86 123.66 473.28 C 130.93 472.58 138.20 473.87 145.08 476.23 C 138.59 478.59 131.08 477.97 125.32 482.24 C 120.30 485.31 117.44 490.54 114.31 495.30 Z" />
<path fill="#000000" opacity="0.80" d=" M 90.72 542.55 C 86.95 531.78 85.05 519.91 87.50 508.65 C 88.36 519.98 90.84 531.42 96.83 541.21 C 105.38 555.88 119.84 566.02 135.03 572.94 C 152.24 580.91 171.11 584.77 189.96 586.04 C 213.06 587.51 236.35 585.82 258.99 581.06 C 271.82 578.29 284.59 574.85 296.60 569.50 C 307.19 564.73 315.93 556.85 326.23 551.57 C 332.19 556.04 336.23 562.41 341.47 567.62 C 348.87 575.11 357.57 581.19 366.63 586.49 C 399.67 605.35 436.94 617.17 475.02 619.12 C 492.48 619.92 510.28 618.59 526.90 612.91 C 540.62 608.19 553.48 599.98 561.92 588.00 C 565.89 582.89 567.87 576.61 571.54 571.32 C 571.73 577.01 569.35 582.36 567.26 587.54 C 561.60 600.79 551.17 611.78 538.49 618.54 C 519.78 628.60 498.02 631.09 477.07 630.53 C 438.06 629.17 399.75 617.35 365.89 598.12 C 358.20 593.71 350.84 588.68 344.22 582.78 C 338.81 578.17 334.49 572.50 329.80 567.22 C 328.37 565.66 326.89 564.04 324.95 563.15 C 318.84 565.47 313.81 569.86 308.32 573.31 C 294.14 583.23 277.16 587.82 260.53 591.73 C 235.81 597.24 210.28 598.98 185.03 597.08 C 163.50 595.23 141.99 589.78 123.23 578.83 C 108.88 570.67 96.44 558.26 90.72 542.55 Z" />
<path fill="#000000" opacity="0.80" d=" M 519.65 520.59 C 526.65 518.76 534.45 516.75 541.46 519.49 C 543.99 522.21 545.66 525.62 546.83 529.12 C 548.67 534.91 549.86 541.27 547.78 547.17 C 545.86 542.69 545.07 537.73 542.35 533.62 C 539.63 528.95 534.72 526.00 529.57 524.77 C 526.18 523.65 522.13 523.45 519.65 520.59 Z" />
</g>
</svg>
